<svg width="247" height="34" xmlns="http://www.w3.org/2000/svg">

 <g>
  <title>background</title>
  <rect fill="none" id="canvas_background" height="402" width="582" y="-1" x="-1"/>
 </g>
 <g>
  <title>Layer 1</title>
  <path id="svg_1" fill="#E30B13" d="m18,33l16,0l0,-2.586l-7.277,0a15.924,15.924 0 0 1 -8.723,2.586zm0,-5.818a3.236,3.236 0 0 1 -3.232,-3.232a3.236,3.236 0 0 1 3.232,-3.234l0,-7.434a3.236,3.236 0 0 1 -3.232,-3.232a3.236,3.236 0 0 1 3.232,-3.233l0,-5.817c-8.837,0 -16,7.163 -16,16s7.163,16 16,16l0,-5.818zm-6.95,-6.95a3.236,3.236 0 0 1 -3.232,-3.232a3.236,3.236 0 0 1 3.232,-3.232a3.236,3.236 0 0 1 3.234,3.232a3.236,3.236 0 0 1 -3.232,3.232l-0.002,0z"/>
  <path id="svg_2" fill="#CE080F" d="m34,17c0,-8.837 -7.163,-16 -16,-16l0,5.818a3.236,3.236 0 0 1 3.232,3.232a3.236,3.236 0 0 1 -3.232,3.234l0,7.434a3.236,3.236 0 0 1 3.232,3.233a3.236,3.236 0 0 1 -3.232,3.23l0,5.819c3.218,0 6.214,-0.95 8.723,-2.586c4.38,-2.854 7.277,-7.796 7.277,-13.414zm-9.05,-3.232a3.236,3.236 0 0 1 3.231,3.232a3.236,3.236 0 0 1 -3.232,3.232a3.236,3.236 0 0 1 -3.233,-3.232a3.236,3.236 0 0 1 3.233,-3.232l0.001,0z"/>
  <text font-weight="bold" xml:space="preserve" text-anchor="start" font-family="'Trebuchet MS', Gadget, sans-serif" font-size="22" id="svg_5" y="24.969174" x="43.157522" stroke-opacity="null" stroke-width="0" stroke="null" fill="#ffffff">ONLINE-MOVIE</text>
 </g>
</svg>